<?xml version="1.0" encoding="utf-8"?>
<!-- Generator: Adobe Illustrator 22.1.0, SVG Export Plug-In . SVG Version: 6.00 Build 0)  -->
<svg version="1.1" id="Layer_1" xmlns="http://www.w3.org/2000/svg" xmlns:xlink="http://www.w3.org/1999/xlink" x="0px" y="0px"
	 viewBox="0 0 2000 2000" style="enable-background:new 0 0 2000 2000;" xml:space="preserve">
<style type="text/css">
	.st0{fill:#FFFFFF;}
	.st1{fill:#FEC9DD;}
	.st2{fill:#FFABAB;}
	.st3{fill:#808080;}
	.st4{fill:#AEC9FE;}
	.st5{fill:#6EB6FF;}
	.st6{fill:#666666;}
</style>
<g>
	<g>
		<rect x="878.9" y="808" transform="matrix(0.7071 0.7071 -0.7071 0.7071 949.8315 -434.994)" width="242.2" height="242.2"/>
		<path class="st4" d="M1000,1127l-198-198l198-198l198,198L1000,1127z M816.2,929.1l183.8,183.8l183.8-183.8L1000,745.2
			L816.2,929.1z"/>
		
			<rect x="878.9" y="808" transform="matrix(0.7071 0.7071 -0.7071 0.7071 949.8315 -434.994)" class="st5" width="242.2" height="242.2"/>
		<g>
			<path class="st0" d="M922.2,924.2c12.9,0,14.7-7.1,14.7-13.5c0-5.1-0.7-10.2-1.5-15.3s-1.5-10-1.5-15.1
				c0-16.7,10.9-23.8,26.4-23.8h3.8v10H961c-10.7,0-14.4,5.8-14.4,15.7c0,4.2,0.5,8.6,1.3,12.9c0.7,4.6,1.3,8.9,1.3,13.8
				c0.2,11.6-4.9,17.5-13.1,19.7v0.4c8.2,2,13.3,8.2,13.1,19.8c0,4.9-0.5,9.5-1.3,13.8c-0.7,4.6-1.3,8.7-1.3,13.1
				c0,10.2,4.2,15.8,14.4,15.8h3.3v10h-3.8c-15.1,0-26.4-6.6-26.4-24.9c0-4.9,0.7-10,1.5-14.9c0.7-4.9,1.5-9.8,1.5-14.7
				c0-5.6-1.8-13.5-14.7-13.5V924.2z"/>
			<path class="st0" d="M1077.8,933.5c-12.9,0-14.7,7.8-14.7,13.5c0,4.9,0.7,9.8,1.5,14.7c0.7,4.9,1.5,10,1.5,14.9
				c0,18.4-11.5,24.9-26.4,24.9h-3.8v-10h3.1c10.2-0.2,14.6-5.6,14.6-15.8c0-4.4-0.7-8.6-1.3-13.1c-0.7-4.4-1.5-8.9-1.5-13.8
				c0-11.6,5.1-17.8,13.1-19.8v-0.4c-8-2.2-13.1-8-13.1-19.7c0-4.9,0.7-9.3,1.5-13.8c0.5-4.4,1.3-8.7,1.3-12.9
				c0-9.8-3.8-15.5-14.4-15.7h-3.3v-10h3.6c15.5,0,26.6,7.1,26.6,23.8c0,5.1-0.7,10-1.5,15.1c-0.7,5.1-1.5,10.2-1.5,15.3
				c0,6.4,1.8,13.5,14.7,13.5V933.5z"/>
		</g>
	</g>
	<g>
		<g>
			<path class="st6" d="M633.1,1231.6c-0.2,18.7-11.6,37.3-37,37.3s-37.1-18.2-37.1-37.2c0-19,12.2-38,37.1-38
				C620.9,1193.7,633.3,1212.8,633.1,1231.6z M572.4,1231.9c0.3,11.9,6.7,24.5,23.7,24.5c17,0,23.4-12.8,23.6-24.6
				c0.2-12.2-6.6-25.8-23.6-25.8C579.1,1206.1,572.1,1219.8,572.4,1231.9z"/>
			<path class="st6" d="M736.8,1216.1c0,5.6-2.7,10.9-9.4,13.9c8.5,2.6,11.5,11.5,11.5,16.1c0,16.1-12.1,21.2-27,21.2
				c-11.4,0-22.8,0-34.2,0v-72.1c11.3,0,22.8,0,34.2,0C726.2,1195.1,736.8,1201.5,736.8,1216.1z M691.1,1224.1h20.8
				c8.6,0,11.3-3.6,11.3-7.7c0-3.3-2.7-8.9-11.3-8.9h-20.8V1224.1z M691.1,1254.6h20.8c5.6,0,13.5-1.9,13.5-8.7
				c0-6.5-7.9-9.9-13.5-9.9h-20.8V1254.6z"/>
			<path class="st6" d="M837.4,1267.3h-54c0-24,0-48.1,0-72.1h54v13.2h-40.5v16.6h39.1v12.7h-39.1v16.3h40.5V1267.3z"/>
			<path class="st6" d="M946.9,1267.3h-16.2l-21-24.1h-13.1v24.1H883V1195c11.4,0,22.9,0.1,34.3,0.1c17,0.1,26,11.4,26,23.9
				c0,9.9-4.5,19.9-18.2,22.7l21.8,24.6V1267.3z M896.6,1207.8v23.1h20.7c8.7,0,12.4-5.8,12.4-11.5c0-5.8-3.8-11.5-12.4-11.5H896.6z
				"/>
			<path class="st6" d="M1041.1,1212.8c-4.8-4.6-12.1-7.2-18.3-7.2c-15.5,0-24.8,11.7-24.8,26.6c0,11.9,6.9,24.1,24.8,24.1
				c5.7,0,10.6-1.2,16.3-5.8v-12.8h-18.4v-12.2h30.9v30.4c-7.1,8.1-16.1,13-28.8,13c-27.1,0-38.1-17.8-38.1-36.8
				c0-20.3,12.7-39.1,38.1-39.1c9.7,0,19.4,3.7,26.8,11L1041.1,1212.8z"/>
			<path class="st6" d="M1148.9,1253.7h-37.7l-6.2,13.6h-14.7l32.4-72.1h14.8l32.4,72.1H1155L1148.9,1253.7z M1109.9,1182.4
				c0,9.5,14.4,9.5,14.4,0C1124.3,1172.8,1109.9,1172.8,1109.9,1182.4z M1143.5,1241l-13.4-30.7l-13.4,30.7H1143.5z M1135.5,1182.4
				c0,9.5,14.4,9.5,14.4,0C1150,1172.8,1135.5,1172.8,1135.5,1182.4z"/>
			<path class="st6" d="M1275,1267.3h-16.2l-21-24.1h-13.1v24.1h-13.6V1195c11.4,0,22.9,0.1,34.3,0.1c17,0.1,26,11.4,26,23.9
				c0,9.9-4.5,19.9-18.2,22.7l21.8,24.6V1267.3z M1224.7,1207.8v23.1h20.7c8.7,0,12.4-5.8,12.4-11.5c0-5.8-3.8-11.5-12.4-11.5
				H1224.7z"/>
			<path class="st6" d="M1315.7,1267.3v-72.1h13.5v72.1H1315.7z"/>
			<path class="st6" d="M1430.6,1212.8c-4.8-4.6-12.1-7.2-18.3-7.2c-15.5,0-24.8,11.7-24.8,26.6c0,11.9,6.9,24.1,24.8,24.1
				c5.7,0,10.6-1.2,16.3-5.8v-12.8h-18.4v-12.2h30.9v30.4c-7.1,8.1-16.1,13-28.8,13c-27.1,0-38.1-17.8-38.1-36.8
				c0-20.3,12.7-39.1,38.1-39.1c9.7,0,19.4,3.7,26.8,11L1430.6,1212.8z"/>
		</g>
	</g>
</g>
</svg>
